<svg xmlns="http://www.w3.org/2000/svg" viewBox="88 297 580 92"><path fill="#f7f5f0" fill-rule="evenodd" d="M198,336 L200,339 L200,345 L201,346 L201,348 L199,350 L197,350 L195,348 L195,343 L196,342 L196,339 Z  M330,330 L332,328 L333,329 L335,328 L337,329 L341,329 L343,332 L343,336 L340,339 L338,340 L331,340 L330,339 Z  M261,332 L264,328 L265,329 L266,328 L268,329 L269,328 L270,329 L272,329 L275,332 L275,335 L274,337 L270,340 L263,340 L261,337 Z  M121,329 L122,328 L128,328 L129,329 L132,329 L134,331 L134,336 L131,339 L129,340 L122,340 L121,339 Z  M626,326 L629,326 L632,329 L633,331 L633,333 L634,334 L634,336 L635,337 L635,348 L632,354 L629,356 L626,356 L623,353 L622,351 L622,349 L621,348 L621,335 L622,334 L622,331 L623,329 Z  M531,305 L529,307 L529,310 L530,311 L530,313 L534,321 L535,326 L538,331 L539,336 L541,339 L542,344 L544,347 L544,349 L547,355 L547,371 L546,372 L546,376 L548,379 L554,379 L555,380 L558,380 L559,379 L572,379 L574,376 L574,372 L573,371 L573,359 L572,358 L572,355 L575,349 L575,347 L577,344 L577,342 L580,336 L580,334 L582,331 L582,329 L584,326 L584,324 L586,321 L587,316 L589,313 L589,310 L590,309 L589,308 L589,306 L587,305 L567,305 L565,307 L565,309 L564,310 L564,313 L563,314 L562,321 L561,323 L559,324 L557,321 L557,319 L556,318 L556,315 L555,314 L554,309 L551,305 Z  M409,305 L407,309 L408,310 L409,315 L411,318 L411,320 L413,323 L413,325 L416,331 L416,333 L418,336 L419,341 L422,346 L423,351 L425,354 L425,378 L426,379 L431,379 L432,380 L437,380 L438,379 L450,379 L452,377 L452,368 L451,367 L451,353 L452,352 L453,347 L456,342 L456,340 L459,334 L459,332 L461,329 L461,327 L464,321 L465,316 L468,311 L468,307 L465,305 L445,305 L443,307 L443,309 L442,310 L442,313 L441,314 L441,318 L440,319 L440,321 L439,323 L437,324 L436,323 L436,321 L435,320 L435,318 L434,317 L434,315 L433,314 L433,311 L432,310 L432,308 L431,306 L429,305 Z  M375,305 L373,307 L373,309 L372,310 L372,375 L374,378 L376,378 L377,379 L394,379 L395,378 L397,378 L399,376 L399,349 L400,348 L400,307 L397,305 Z  M307,305 L306,307 L306,376 L307,378 L324,378 L325,379 L326,378 L329,378 L331,376 L331,363 L332,362 L334,363 L338,371 L338,373 L339,375 L342,378 L344,379 L363,379 L365,378 L365,375 L364,374 L364,372 L356,357 L357,355 L359,353 L360,353 L364,348 L364,346 L365,345 L365,342 L366,341 L366,325 L365,324 L365,321 L364,320 L364,318 L362,314 L357,309 L353,307 L351,307 L350,306 L345,306 L344,305 Z  M240,305 L238,307 L238,312 L237,313 L238,315 L238,377 L239,378 L242,378 L243,379 L254,379 L255,378 L261,378 L263,374 L263,368 L262,367 L262,364 L264,362 L265,362 L273,378 L275,379 L295,379 L297,377 L296,375 L296,372 L294,370 L293,368 L293,366 L289,360 L289,358 L288,357 L288,356 L295,349 L296,347 L296,345 L297,344 L297,342 L298,341 L298,325 L297,324 L297,322 L296,321 L295,316 L293,314 L293,313 L290,310 L289,310 L285,307 L283,307 L282,306 L277,306 L276,305 Z  M476,305 L475,307 L475,375 L476,377 L480,379 L492,379 L493,378 L521,378 L523,376 L523,358 L521,356 L510,356 L509,355 L502,355 L500,353 L500,352 L502,350 L510,350 L513,348 L514,346 L514,335 L513,334 L508,334 L507,333 L505,334 L503,333 L502,334 L499,331 L499,329 L501,327 L516,327 L517,326 L522,326 L523,324 L523,306 L520,304 L478,304 Z  M182,305 L182,307 L180,311 L180,314 L179,315 L179,318 L178,319 L178,323 L176,327 L176,331 L174,335 L174,339 L173,340 L173,343 L172,344 L172,348 L171,349 L171,352 L170,353 L170,356 L169,357 L169,360 L168,361 L168,365 L166,369 L166,373 L165,374 L165,376 L166,378 L168,379 L186,379 L189,377 L190,375 L190,371 L194,369 L202,369 L204,370 L206,373 L206,376 L207,378 L209,379 L227,379 L230,377 L230,371 L229,370 L229,367 L228,366 L228,363 L227,362 L227,358 L226,357 L226,354 L225,353 L225,350 L224,349 L224,346 L223,345 L223,342 L222,341 L222,338 L221,337 L221,333 L220,332 L220,329 L219,328 L219,325 L218,324 L218,321 L217,320 L217,317 L216,316 L216,313 L215,312 L215,309 L214,308 L214,306 L212,304 L184,304 Z  M100,304 L98,305 L97,307 L97,376 L99,378 L120,378 L122,374 L121,372 L121,364 L123,361 L128,361 L129,360 L136,360 L137,359 L139,359 L140,358 L145,357 L149,354 L150,354 L155,348 L156,346 L156,343 L157,342 L157,338 L158,337 L158,326 L157,325 L157,321 L156,320 L156,318 L154,314 L149,309 L143,306 L140,306 L139,305 L131,305 L130,304 Z  M625,303 L624,304 L620,304 L619,305 L616,305 L612,307 L609,310 L608,310 L607,312 L605,313 L605,314 L603,316 L603,318 L601,320 L601,323 L600,324 L600,326 L599,327 L599,330 L598,331 L598,337 L597,338 L597,351 L598,352 L598,358 L599,359 L599,362 L601,365 L601,367 L609,375 L613,377 L618,378 L619,379 L623,379 L624,380 L632,380 L633,379 L637,379 L638,378 L640,378 L644,376 L646,374 L647,374 L653,367 L656,361 L656,358 L658,354 L658,333 L657,332 L657,329 L656,328 L656,324 L653,318 L653,316 L649,312 L648,310 L647,310 L644,307 L642,306 L640,306 L639,305 L637,305 L636,304 L631,304 L630,303 Z "/></svg>